<svg width="36" height="29" viewBox="0 0 36 29" fill="none" xmlns="http://www.w3.org/2000/svg">
<g clip-path="url(#clip0_118_9405)">
<path d="M32.9876 17.4971C31.7498 16.9065 30.3937 16.8548 29.184 17.2505C28.5031 17.4742 27.8335 16.9237 27.9292 16.2011C28.7676 9.89847 25.3859 3.50411 19.1796 0.992241C12.4443 -1.73181 4.64566 1.3478 1.44403 7.97156C-2.02768 15.1573 0.965759 23.8227 8.04985 27.2235C13.7272 29.9475 20.2824 28.4564 24.3281 24.0005C24.8063 23.4671 25.6503 23.622 25.9148 24.2929C26.3818 25.5087 27.2934 26.5525 28.5425 27.1546C31.2096 28.4335 34.3943 27.2235 35.5759 24.4535C36.6844 21.8442 35.5141 18.7015 32.9876 17.4971ZM14.0817 18.8678C15.8317 18.8678 17.3509 17.8412 18.088 16.3502H24.5588C23.6191 21.3739 19.2809 25.1761 14.0817 25.1761C8.19614 25.1761 3.40777 20.2958 3.40777 14.2971C3.40777 8.29844 8.19614 3.41808 14.0817 3.41808C19.2809 3.41808 23.6191 7.22029 24.5588 12.244H18.088C17.3509 10.753 15.8317 9.72642 14.0817 9.72642C11.6116 9.72642 9.59721 11.7738 9.59721 14.2971C9.59721 16.8147 11.6116 18.8678 14.0817 18.8678ZM30.8382 24.6198C29.5666 24.6198 28.5312 23.5646 28.5312 22.2628C28.5312 20.961 29.5666 19.9058 30.8382 19.9058C32.1155 19.9058 33.1508 20.961 33.1508 22.2628C33.1508 23.5646 32.1155 24.6198 30.8382 24.6198Z" fill="#FFDD50"/>
</g>
<defs>
<clipPath id="clip0_118_9405">
<rect width="36" height="28.5882" fill="white"/>
</clipPath>
</defs>
</svg>
